<?xml version="1.0" encoding="UTF-8"?>
<svg xmlns="http://www.w3.org/2000/svg" width="512" height="512" viewBox="0 0 512 512"><g><path d="M428,8H84A28.031,28.031,0,0,0,56,36V452a28.043,28.043,0,0,0,24,27.71V496a8,8,0,0,0,8,8h64a8,8,0,0,0,8-8V480H352v16a8,8,0,0,0,8,8h64a8,8,0,0,0,8-8V479.71A28.043,28.043,0,0,0,456,452V36A28.031,28.031,0,0,0,428,8ZM144,488H96v-8h48Zm272,0H368v-8h48Zm12-24H84a12.014,12.014,0,0,1-11.3-8H439.3A12.014,12.014,0,0,1,428,464ZM204.94,440l8-16h86.12l8,16ZM440,440H324.94l-13.78-27.58A8.011,8.011,0,0,0,304,408H208a8.011,8.011,0,0,0-7.16,4.42L187.06,440H72V36A12.01,12.01,0,0,1,84,24H428a12.01,12.01,0,0,1,12,12Z"/><path d="M352,176H160a8,8,0,0,0-8,8v24a8,8,0,0,0,8,8H352a8,8,0,0,0,8-8V184A8,8,0,0,0,352,176Zm-8,24H168v-8H344Z"/><path d="M96,216h40a8,8,0,0,0,8-8V184a8,8,0,0,0-8-8H96a8,8,0,0,0-8,8v24A8,8,0,0,0,96,216Zm8-24h24v8H104Z"/><path d="M416,176H376a8,8,0,0,0-8,8v24a8,8,0,0,0,8,8h40a8,8,0,0,0,8-8V184A8,8,0,0,0,416,176Zm-8,24H384v-8h24Z"/><path d="M304,304H280V232a8,8,0,0,0-14.247-5l-64,80A8,8,0,0,0,208,320h24v72a8,8,0,0,0,14.247,5l64-80A8,8,0,0,0,304,304Zm-56,65.193V312a8,8,0,0,0-8-8H224.645L264,254.807V312a8,8,0,0,0,8,8h15.355Z"/><path d="M96,168H416a8,8,0,0,0,8-8V48a8,8,0,0,0-8-8H96a8,8,0,0,0-8,8V160A8,8,0,0,0,96,168Zm8-112H408v96H104Z"/></g></svg>
